<svg xmlns="http://www.w3.org/2000/svg" width="500" height="500" fill="none" viewBox="0 0 500 500"><path fill="#000" d="M257.655 241.899c.646 0 1.323 0 1.97.187h.924a23.8 23.8 0 0 0 12.7-3.684 24.2 24.2 0 0 0 8.851-9.919 6.44 6.44 0 0 0 0-5.229 6.2 6.2 0 0 0-1.513-2.178 6.15 6.15 0 0 0-2.274-1.34 5.9 5.9 0 0 0-1.94-.311 6.1 6.1 0 0 0-3.342.967 6.2 6.2 0 0 0-2.292 2.644 11.54 11.54 0 0 1-4.218 4.698 11.36 11.36 0 0 1-6.034 1.745h-.431a10.98 10.98 0 0 1-6.742-2.614 6.45 6.45 0 0 0-4.064-1.463 6.12 6.12 0 0 0-4.218 1.68 6.2 6.2 0 0 0-1.52 2.176 6.3 6.3 0 0 0-.482 2.618c.036.901.257 1.784.649 2.593.392.81.947 1.527 1.63 2.107a23.45 23.45 0 0 0 12.346 5.323"/><path fill="#000" d="M401.103 161.311c-12.404-19.482-28.504-36.286-47.369-49.44a172.5 172.5 0 0 0-62.543-27.196l-1.878-.373q-.708-.047-1.416 0l-4.187-22.256a18.25 18.25 0 0 0-6.539-10.957 17.88 17.88 0 0 0-12.054-3.901 17.9 17.9 0 0 0-11.616 5.08 18.3 18.3 0 0 0-5.443 11.552l-1.54 17.245c-48.613 2.116-95.441 23.999-126.229 62.41a49.5 49.5 0 0 0-5.573 9.525c-7.758 1.974-14.574 6.66-19.242 13.23a39 39 0 0 0-4.649-.281 37.64 37.64 0 0 0-20.886 6.272 38.25 38.25 0 0 0-14.027 16.856l-.339.841a16.26 16.26 0 0 0-.235 12.13 16.02 16.02 0 0 0 8.21 8.85l6.157 2.801-5.665 19.393c-5.234-1.339-10.93-2.708-14.1-.623-3.172 2.086-4.434 6.693-5.943 11.237l-1.077 4.887a17 17 0 0 0-.277 1.712c-1.755 15.564 8.282 28.513 24.383 31.128l15.394 2.615a15 15 0 0 0 0 2.334c4.586 27.27 15.422 53.075 31.643 75.35 16.22 22.275 37.374 40.401 61.767 52.927 2.278 1.183 13.362 6.225 16.287 7.253a172.5 172.5 0 0 0 26.046 8.124 174 174 0 0 0 36.483 3.922c44.166-.02 86.677-16.998 118.933-47.501 3.294-3.112 13.577-14.163 16.471-17.711 23.316-28.939 36.948-64.611 38.934-101.882s-7.776-74.217-27.881-105.521zm-137.22-96.184c.03-.528.252-1.026.623-1.4a2.11 2.11 0 0 1 2.833-.146c.407.333.678.806.761 1.328l9.237 48.559s-14.778-2.863-16.533-12.202zm-4.557 52.046a30 30 0 0 0 3.448 3.112 28.5 28.5 0 0 0 9.236 4.669c1.951.587 3.95.994 5.973 1.214h1.416l7.759 26.085a29 29 0 0 1-13.762-3.548 32.6 32.6 0 0 1-12.531-9.899 35 35 0 0 1-2.124-3.362l-.862-1.556-.708-1.432zm-4.741 42.52 1.2-10.801c.678.933 1.447 1.836 2.248 2.739a52 52 0 0 0 2.555 2.708 38.47 38.47 0 0 0 23.029 11.112q1.57 0 3.233.187h3.387l8.99 32.653a.6.6 0 0 1-.298.678.58.58 0 0 1-.718-.149 35 35 0 0 0-6.774-6.599 41 41 0 0 0-3.663-2.334l-17.211-9.619-17.179-9.587zm-20.659 40.746 9.236-16.529 37.654 21.323a19.4 19.4 0 0 1 5.875 5.1 19.65 19.65 0 0 1 3.425 7.022 19.75 19.75 0 0 1-2.219 15.176l-3.079 5.292c-3.471 5.688-8.999 9.783-15.408 11.416a25.16 25.16 0 0 1-18.92-2.669l-5.172-3.113c-7.108-4.22-12.287-11.098-14.419-19.148a32.03 32.03 0 0 1 3.027-23.87m-53.693-14.723 8.62-15.035a15.46 15.46 0 0 1 6.439-6.124 15.24 15.24 0 0 1 8.709-1.533c2.013.226 3.961.861 5.726 1.867l30.788 17.463zm68.533-88.745c-.77 6.723-1.355 11.486-1.386 11.486l-2.555 16.529-4.403 38.567-22.782-12.918a30.55 30.55 0 0 0-11.731-3.86 31.26 31.26 0 0 0-17.8 3.101 31.7 31.7 0 0 0-13.203 12.463l-9.513 16.84s-16.379-23.066-32.912-25.432c14.4-17.133 32.183-31.035 52.208-40.812a158.15 158.15 0 0 1 64.077-15.964m-65.793 303.525c-22.168-11.43-41.387-27.94-56.124-48.212s-24.585-43.745-28.758-68.548l18.042 3.393a153.4 153.4 0 0 1 49.66 18.677c7.451 4.389 14.039 8.342 15.209 9.338l5.911 4.576a97.8 97.8 0 0 0 31.958 16.342s-20.258 36.855-35.898 64.434m179.799-25.836c-29.365 27.662-67.99 43.073-108.126 43.143a156.7 156.7 0 0 1-56.864-10.739l38.669-67.485c12.838 1.681 22.167-1.12 28.971-9.338a6.084 6.084 0 0 0 .585-8.405c-3.941-5.416-10.098-.28-10.098-.28-6.343 4.358-10.53 5.043-19.705 3.113a96.2 96.2 0 0 1-39.161-17.898l-6.558-5.105a126 126 0 0 0-19.581-12.451l-2.494-1.276a127.5 127.5 0 0 0-34.544-11.144l-64.223-10.988c-3.078-.498-12.315-3.113-11.237-13.634l1.078-4.918a251 251 0 0 0 46.181 10.739l5.357.809q4.618.7 9.236 1.214a220 220 0 0 0 28.017 1.712 20.7 20.7 0 0 0 5.726-.996l4.188-1.307a22.02 22.02 0 0 0 11.422-8.031 21.9 21.9 0 0 0 4.015-9.989c.489-3.616.072-7.3-1.214-10.711a22.2 22.2 0 0 0-6.818-9.335 21.83 21.83 0 0 0-10.546-4.579c-10.067-.343-65.485-9.338-85.374-17.805l1.078-3.362a22.24 22.24 0 0 1 11.213-11.577 21.88 21.88 0 0 1 16.003-.874l2.432.809a3.32 3.32 0 0 0 2.084-.171 3.37 3.37 0 0 0 1.58-1.385l1.201-2.272a22.9 22.9 0 0 1 6.253-7.417 22.6 22.6 0 0 1 8.732-4.128 22.5 22.5 0 0 1 9.639-.096 22.6 22.6 0 0 1 8.811 3.952 24 24 0 0 1 3.479 3.113l.739.778q.445.394.8.872l14.686 17.618a12.1 12.1 0 0 0 4.386 3.294 11.95 11.95 0 0 0 5.374 1.001l53.047-2.365a45.12 45.12 0 0 0-2.423 32.358c3.233 10.711 10.328 19.804 19.879 25.477l5.234 3.113a37.6 37.6 0 0 0 14.686 4.949 37.93 37.93 0 0 0 21.077-3.63 38.45 38.45 0 0 0 15.868-14.486l40.855-68.979-5.264 80.932 31.434 118.284zM79.434 237.045l5.48-19.766c7.85 1.868 17.672 4.078 27.709 6.225l5.449 1.09c19.643 3.58 35.252 4.949 35.252 4.949a8.8 8.8 0 0 1 4.219 1.889 8.96 8.96 0 0 1 2.708 3.776 9.43 9.43 0 0 1 0 6.755c-.646 1.805-2.278 5.883-10.313 6.226-11.269.871-42.549-3.642-70.504-11.144m296.023 124.51c0-.747-29.218-106.705-29.218-106.612l4.773-92.169a12.5 12.5 0 0 0-3.257-6.858 12.3 12.3 0 0 0-6.596-3.663l-1.016-.155a12.2 12.2 0 0 0-6.87 1.231 12.37 12.37 0 0 0-5.106 4.807l-17.487 29.758-24.63-87.842 1.631.312c26.567 5.727 51.235 18.255 71.641 36.382s35.869 41.247 44.906 67.147a162.1 162.1 0 0 1 6.709 80.771c-4.639 27.061-16.071 52.464-33.202 73.778"/></svg>